<svg width="15" height="15" viewBox="0 0 15 15" fill="none" xmlns="http://www.w3.org/2000/svg">
<path d="M6.76953 8.67444V14.6119H2.55273C1.77048 14.6118 1.13673 13.9772 1.13672 13.1949V8.67444H6.76953ZM13.8643 13.1949C13.8642 13.9773 13.2297 14.6119 12.4473 14.6119H8.04395V8.67444H13.8643V13.1949ZM8.82031 1.25256C9.85828 0.591241 11.2361 0.896287 11.8975 1.9342C12.5587 2.97225 12.2528 4.35001 11.2148 5.01135C11.1855 5.03005 11.1538 5.04674 11.1221 5.06506H13.792C14.1832 5.06506 14.5 5.38285 14.5 5.77405V6.91077C14.5 7.10808 14.4084 7.28223 14.2676 7.39905H8.04395V4.94202H6.76953V7.39905H0.732422C0.591519 7.28223 0.500006 7.10796 0.5 6.91077V5.77405C0.5 5.38296 0.816955 5.06524 1.20801 5.06506H3.88086C3.8489 5.04664 3.81663 5.03016 3.78711 5.01135C2.7495 4.34994 2.44443 2.97209 3.10547 1.9342C3.76673 0.896546 5.14377 0.59161 6.18164 1.25256C6.61039 1.52574 7.11867 2.05744 7.50098 2.61878C7.88324 2.05743 8.39154 1.52583 8.82031 1.25256ZM5.49707 2.32776C5.05301 2.04496 4.46358 2.17562 4.18066 2.61975C3.89792 3.06389 4.02875 3.6532 4.47266 3.93616C4.74115 4.10718 5.34233 4.32019 5.94434 4.39514C6.23919 4.43183 6.49034 4.42855 6.6709 4.39319C6.86149 4.35577 6.87828 4.30366 6.8623 4.32874C6.8471 4.35291 6.88714 4.31494 6.84082 4.12756C6.79662 3.94887 6.69217 3.72035 6.53418 3.46838C6.21182 2.95433 5.76554 2.49886 5.49707 2.32776ZM10.8223 2.61975C10.5394 2.17575 9.94987 2.04509 9.50586 2.32776C9.23735 2.49892 8.79011 2.95432 8.46777 3.46838C8.30987 3.72026 8.20629 3.94893 8.16211 4.12756C8.11558 4.31578 8.1554 4.35354 8.13965 4.32874C8.12379 4.30391 8.14106 4.35582 8.33105 4.39319C8.51154 4.42862 8.76274 4.43179 9.05762 4.39514C9.65968 4.32023 10.2617 4.1072 10.5303 3.93616C10.974 3.6532 11.1049 3.06383 10.8223 2.61975Z" fill="#262F56"/>
</svg>
